<svg preserveAspectRatio="none" width="100%" height="100%" overflow="visible" style="display: block;" viewBox="0 0 16 16" fill="none" xmlns="http://www.w3.org/2000/svg">
<g id="Frame">
<g clip-path="url(#clip0_1_2357)">
<path id="Vector" d="M4.89375 12.0281L3.92812 11.0625C3.6625 10.7969 3.56875 10.4125 3.6875 10.0563C3.78125 9.77813 3.90625 9.41563 4.05625 9H0.75C0.48125 9 0.23125 8.85625 0.096875 8.62188C-0.0375 8.3875 -0.034375 8.1 0.103125 7.86875L1.74375 5.10313C2.15 4.41875 2.88437 4 3.67812 4H6.25C6.325 3.875 6.4 3.75937 6.475 3.64687C9.03438 -0.128125 12.8469 -0.253125 15.1219 0.165625C15.4844 0.23125 15.7656 0.515625 15.8344 0.878125C16.2531 3.15625 16.125 6.96562 12.3531 9.525C12.2437 9.6 12.125 9.675 12 9.75V12.3219C12 13.1156 11.5813 13.8531 10.8969 14.2563L8.13125 15.8969C7.9 16.0344 7.6125 16.0375 7.37813 15.9031C7.14375 15.7688 7 15.5219 7 15.25V11.9C6.55938 12.0531 6.175 12.1781 5.88438 12.2719C5.53438 12.3844 5.15313 12.2875 4.89063 12.0281H4.89375ZM12 5.25C12.3315 5.25 12.6495 5.1183 12.8839 4.88388C13.1183 4.64946 13.25 4.33152 13.25 4C13.25 3.66848 13.1183 3.35054 12.8839 3.11612C12.6495 2.8817 12.3315 2.75 12 2.75C11.6685 2.75 11.3505 2.8817 11.1161 3.11612C10.8817 3.35054 10.75 3.66848 10.75 4C10.75 4.33152 10.8817 4.64946 11.1161 4.88388C11.3505 5.1183 11.6685 5.25 12 5.25Z" fill="var(--fill-0, white)"/>
</g>
</g>
<defs>
<clipPath id="clip0_1_2357">
<path d="M0 0H16V16H0V0Z" fill="white"/>
</clipPath>
</defs>
</svg>
