<svg preserveAspectRatio="none" width="100%" height="100%" overflow="visible" style="display: block;" viewBox="0 0 9 14" fill="none" xmlns="http://www.w3.org/2000/svg">
<g id="Frame">
<g clip-path="url(#clip0_1_2375)">
<path id="Vector" d="M3.75703 1.13203C4.09883 0.790234 4.65391 0.790234 4.9957 1.13203L8.4957 4.63203C8.74727 4.88359 8.82109 5.2582 8.68437 5.58633C8.54766 5.91445 8.23047 6.12773 7.875 6.12773H0.875C0.522266 6.12773 0.202344 5.91445 0.065625 5.58633C-0.0710937 5.2582 0.00546875 4.88359 0.254297 4.63203L3.7543 1.13203H3.75703ZM3.75703 12.8707L0.257031 9.3707C0.00546875 9.11914 -0.0683594 8.74453 0.0683594 8.41641C0.205078 8.08828 0.522265 7.875 0.877734 7.875H7.875C8.22773 7.875 8.54766 8.08828 8.68437 8.41641C8.82109 8.74453 8.74453 9.11914 8.4957 9.3707L4.9957 12.8707C4.65391 13.2125 4.09883 13.2125 3.75703 12.8707Z" fill="var(--fill-0, #374151)"/>
</g>
</g>
<defs>
<clipPath id="clip0_1_2375">
<path d="M0 0H8.75V14H0V0Z" fill="white"/>
</clipPath>
</defs>
</svg>
