<svg preserveAspectRatio="none" width="100%" height="100%" overflow="visible" style="display: block;" viewBox="0 0 20 20" fill="none" xmlns="http://www.w3.org/2000/svg">
<g id="Frame">
<path d="M20 20H0V0H20V20Z" stroke="var(--stroke-0, #E5E7EB)"/>
<path id="Vector" d="M17.5 3.75V8.75H11.25V3.75H17.5ZM17.5 11.25V16.25H11.25V11.25H17.5ZM8.75 8.75H2.5V3.75H8.75V8.75ZM2.5 11.25H8.75V16.25H2.5V11.25ZM2.5 1.25C1.12109 1.25 0 2.37109 0 3.75V16.25C0 17.6289 1.12109 18.75 2.5 18.75H17.5C18.8789 18.75 20 17.6289 20 16.25V3.75C20 2.37109 18.8789 1.25 17.5 1.25H2.5Z" fill="var(--fill-0, #6366F1)"/>
</g>
</svg>
