<svg preserveAspectRatio="none" width="100%" height="100%" overflow="visible" style="display: block;" viewBox="0 0 14 14" fill="none" xmlns="http://www.w3.org/2000/svg">
<g id="Frame">
<g clip-path="url(#clip0_1_2345)">
<path id="Vector" d="M0.106641 1.50117C0.287109 1.11836 0.669922 0.875 1.09375 0.875H12.9063C13.3301 0.875 13.7129 1.11836 13.8934 1.50117C14.0738 1.88398 14.0191 2.33516 13.7512 2.66328L8.75 8.77461V12.25C8.75 12.5809 8.56406 12.8844 8.26602 13.032C7.96797 13.1797 7.61523 13.1496 7.35 12.95L5.6 11.6375C5.37852 11.4734 5.25 11.2137 5.25 10.9375V8.77461L0.246094 2.66055C-0.0191406 2.33516 -0.0765625 1.88125 0.106641 1.50117Z" fill="var(--fill-0, #374151)"/>
</g>
</g>
<defs>
<clipPath id="clip0_1_2345">
<path d="M0 0H14V14H0V0Z" fill="white"/>
</clipPath>
</defs>
</svg>
