<svg preserveAspectRatio="none" width="100%" height="100%" overflow="visible" style="display: block;" viewBox="0 0 14 14" fill="none" xmlns="http://www.w3.org/2000/svg">
<g id="Frame">
<path d="M14 14H0V0H14V14Z" stroke="var(--stroke-0, #E5E7EB)"/>
<path id="Vector" d="M1.09375 1.3125C0.730078 1.3125 0.4375 1.60508 0.4375 1.96875V3.28125C0.4375 3.64492 0.730078 3.9375 1.09375 3.9375H2.40625C2.76992 3.9375 3.0625 3.64492 3.0625 3.28125V1.96875C3.0625 1.60508 2.76992 1.3125 2.40625 1.3125H1.09375ZM5.25 1.75C4.76602 1.75 4.375 2.14102 4.375 2.625C4.375 3.10898 4.76602 3.5 5.25 3.5H13.125C13.609 3.5 14 3.10898 14 2.625C14 2.14102 13.609 1.75 13.125 1.75H5.25ZM5.25 6.125C4.76602 6.125 4.375 6.51602 4.375 7C4.375 7.48398 4.76602 7.875 5.25 7.875H13.125C13.609 7.875 14 7.48398 14 7C14 6.51602 13.609 6.125 13.125 6.125H5.25ZM5.25 10.5C4.76602 10.5 4.375 10.891 4.375 11.375C4.375 11.859 4.76602 12.25 5.25 12.25H13.125C13.609 12.25 14 11.859 14 11.375C14 10.891 13.609 10.5 13.125 10.5H5.25ZM0.4375 6.34375V7.65625C0.4375 8.01992 0.730078 8.3125 1.09375 8.3125H2.40625C2.76992 8.3125 3.0625 8.01992 3.0625 7.65625V6.34375C3.0625 5.98008 2.76992 5.6875 2.40625 5.6875H1.09375C0.730078 5.6875 0.4375 5.98008 0.4375 6.34375ZM1.09375 10.0625C0.730078 10.0625 0.4375 10.3551 0.4375 10.7188V12.0312C0.4375 12.3949 0.730078 12.6875 1.09375 12.6875H2.40625C2.76992 12.6875 3.0625 12.3949 3.0625 12.0312V10.7188C3.0625 10.3551 2.76992 10.0625 2.40625 10.0625H1.09375Z" fill="var(--fill-0, #6B7280)"/>
</g>
</svg>
