<svg preserveAspectRatio="none" width="100%" height="100%" overflow="visible" style="display: block;" viewBox="0 0 18 18" fill="none" xmlns="http://www.w3.org/2000/svg">
<g id="Frame">
<path d="M18 18H0V0H18V18Z" stroke="var(--stroke-0, #E5E7EB)"/>
<path id="Vector" d="M15.75 3.375V7.875H10.125V3.375H15.75ZM15.75 10.125V14.625H10.125V10.125H15.75ZM7.875 7.875H2.25V3.375H7.875V7.875ZM2.25 10.125H7.875V14.625H2.25V10.125ZM2.25 1.125C1.00898 1.125 0 2.13398 0 3.375V14.625C0 15.866 1.00898 16.875 2.25 16.875H15.75C16.991 16.875 18 15.866 18 14.625V3.375C18 2.13398 16.991 1.125 15.75 1.125H2.25Z" fill="var(--fill-0, #6366F1)"/>
</g>
</svg>
