<svg preserveAspectRatio="none" width="100%" height="100%" overflow="visible" style="display: block;" viewBox="0 0 20 20" fill="none" xmlns="http://www.w3.org/2000/svg">
<g id="Frame">
<g clip-path="url(#clip0_1_2225)">
<path id="Vector" d="M11.25 1.25C11.25 0.558594 10.6914 0 10 0C9.30859 0 8.75 0.558594 8.75 1.25V9.375C8.75 9.71875 8.46875 10 8.125 10C7.78125 10 7.5 9.71875 7.5 9.375V2.5C7.5 1.80859 6.94141 1.25 6.25 1.25C5.55859 1.25 5 1.80859 5 2.5V13.125C5 13.1836 5 13.2461 5.00391 13.3047L2.64062 11.0547C2.01562 10.4609 1.02734 10.4844 0.429688 11.1094C-0.167969 11.7344 -0.140625 12.7227 0.484375 13.3203L4.875 17.5C6.55859 19.1055 8.79688 20 11.125 20H11.875C15.6719 20 18.75 16.9219 18.75 13.125V5C18.75 4.30859 18.1914 3.75 17.5 3.75C16.8086 3.75 16.25 4.30859 16.25 5V9.375C16.25 9.71875 15.9688 10 15.625 10C15.2813 10 15 9.71875 15 9.375V2.5C15 1.80859 14.4414 1.25 13.75 1.25C13.0586 1.25 12.5 1.80859 12.5 2.5V9.375C12.5 9.71875 12.2188 10 11.875 10C11.5313 10 11.25 9.71875 11.25 9.375V1.25Z" fill="var(--fill-0, #EF4444)"/>
</g>
</g>
<defs>
<clipPath id="clip0_1_2225">
<path d="M0 0H20V20H0V0Z" fill="white"/>
</clipPath>
</defs>
</svg>
