<svg preserveAspectRatio="none" width="100%" height="100%" overflow="visible" style="display: block;" viewBox="0 0 14 14" fill="none" xmlns="http://www.w3.org/2000/svg">
<g id="Frame">
<g clip-path="url(#clip0_1_2372)">
<path id="Vector" d="M14 6.5625C14 9.7043 10.8664 12.25 7 12.25C5.98555 12.25 5.02305 12.075 4.15352 11.7605C3.82812 11.9984 3.29766 12.3238 2.66875 12.5973C2.0125 12.8816 1.22227 13.125 0.4375 13.125C0.259766 13.125 0.101172 13.0184 0.0328125 12.8543C-0.0355469 12.6902 0.00273437 12.5043 0.125781 12.3785L0.133984 12.3703C0.142187 12.3621 0.153125 12.3512 0.169531 12.332C0.199609 12.2992 0.246094 12.2473 0.303516 12.1762C0.415625 12.0395 0.566016 11.8371 0.719141 11.5855C0.992578 11.1316 1.25234 10.5355 1.3043 9.86562C0.483984 8.93594 0 7.7957 0 6.5625C0 3.4207 3.13359 0.875 7 0.875C10.8664 0.875 14 3.4207 14 6.5625Z" fill="var(--fill-0, #6B7280)"/>
</g>
</g>
<defs>
<clipPath id="clip0_1_2372">
<path d="M0 0H14V14H0V0Z" fill="white"/>
</clipPath>
</defs>
</svg>
