<svg preserveAspectRatio="none" width="100%" height="100%" overflow="visible" style="display: block;" viewBox="0 0 18 20" fill="none" xmlns="http://www.w3.org/2000/svg">
<g id="Frame">
<g clip-path="url(#clip0_1_2228)">
<path id="Vector" d="M5 1.5625C5 0.699219 5.69922 0 6.5625 0C7.42578 0 8.125 0.699219 8.125 1.5625V7.35156C8.45703 7.05469 8.89453 6.875 9.375 6.875C10.1797 6.875 10.8672 7.38281 11.1328 8.09375C11.4766 7.73047 11.9609 7.5 12.5 7.5C13.4883 7.5 14.2969 8.26172 14.3711 9.23047C14.7031 8.92969 15.1445 8.75 15.625 8.75C16.6602 8.75 17.5 9.58984 17.5 10.625V12.5V13.125V15C17.5 17.7617 15.2617 20 12.5 20H11.875H9.375H9.37109H9.16797C8.97266 20 8.78125 19.9883 8.59375 19.9609C6.43359 19.7422 4.44531 18.6328 3.125 16.875L0.3125 13.125C-0.207031 12.4336 -0.0664063 11.457 0.625 10.9375C1.31641 10.418 2.29297 10.5586 2.8125 11.25L5 14.168V1.5625ZM9.375 11.875C9.375 11.5312 9.09375 11.25 8.75 11.25C8.40625 11.25 8.125 11.5312 8.125 11.875V15.625C8.125 15.9688 8.40625 16.25 8.75 16.25C9.09375 16.25 9.375 15.9688 9.375 15.625V11.875ZM11.25 11.25C10.9063 11.25 10.625 11.5312 10.625 11.875V15.625C10.625 15.9688 10.9063 16.25 11.25 16.25C11.5938 16.25 11.875 15.9688 11.875 15.625V11.875C11.875 11.5312 11.5938 11.25 11.25 11.25ZM14.375 11.875C14.375 11.5312 14.0938 11.25 13.75 11.25C13.4063 11.25 13.125 11.5312 13.125 11.875V15.625C13.125 15.9688 13.4063 16.25 13.75 16.25C14.0938 16.25 14.375 15.9688 14.375 15.625V11.875Z" fill="var(--fill-0, #6366F1)"/>
</g>
</g>
<defs>
<clipPath id="clip0_1_2228">
<path d="M0 0H17.5V20H0V0Z" fill="white"/>
</clipPath>
</defs>
</svg>
