<svg preserveAspectRatio="none" width="100%" height="100%" overflow="visible" style="display: block;" viewBox="0 0 48 48" fill="none" xmlns="http://www.w3.org/2000/svg">
<g id="Frame">
<g clip-path="url(#clip0_1_2246)">
<path id="Vector" d="M14.6813 36.0844L11.7844 33.1875C10.9875 32.3906 10.7062 31.2375 11.0625 30.1688C11.3437 29.3344 11.7188 28.2469 12.1688 27H2.25C1.44375 27 0.69375 26.5688 0.290625 25.8656C-0.1125 25.1625 -0.103125 24.3 0.309375 23.6063L5.23125 15.3094C6.45 13.2563 8.65312 12 11.0344 12H18.75C18.975 11.625 19.2 11.2781 19.425 10.9406C27.1031 -0.384376 38.5406 -0.759375 45.3656 0.496875C46.4531 0.69375 47.2969 1.54688 47.5031 2.63438C48.7594 9.46875 48.375 20.8969 37.0594 28.575C36.7312 28.8 36.375 29.025 36 29.25V36.9656C36 39.3469 34.7438 41.5594 32.6906 42.7688L24.3938 47.6906C23.7 48.1031 22.8375 48.1125 22.1344 47.7094C21.4313 47.3063 21 46.5656 21 45.75V35.7C19.6781 36.1594 18.525 36.5344 17.6531 36.8156C16.6031 37.1531 15.4594 36.8625 14.6719 36.0844H14.6813ZM36 15.75C36.9946 15.75 37.9484 15.3549 38.6517 14.6517C39.3549 13.9484 39.75 12.9946 39.75 12C39.75 11.0054 39.3549 10.0516 38.6517 9.34835C37.9484 8.64509 36.9946 8.25 36 8.25C35.0054 8.25 34.0516 8.64509 33.3484 9.34835C32.6451 10.0516 32.25 11.0054 32.25 12C32.25 12.9946 32.6451 13.9484 33.3484 14.6517C34.0516 15.3549 35.0054 15.75 36 15.75Z" fill="var(--fill-0, white)"/>
</g>
</g>
<defs>
<clipPath id="clip0_1_2246">
<path d="M0 0H48V48H0V0Z" fill="white"/>
</clipPath>
</defs>
</svg>
